<mxfile host="app.diagrams.net" agent="Mozilla/5.0 (Windows NT 10.0; Win64; x64) AppleWebKit/537.36 (KHTML, like Gecko) Chrome/131.0.0.0 Safari/537.36 Edg/131.0.0.0" version="26.0.1">
  <diagram id="kgpKYQtTHZ0yAKxKKP6v" name="Page-1">
    <mxGraphModel dx="1040" dy="1157" grid="1" gridSize="10" guides="1" tooltips="1" connect="1" arrows="1" fold="1" page="1" pageScale="1" pageWidth="850" pageHeight="1100" math="0" shadow="0">
      <root>
        <mxCell id="0" />
        <mxCell id="1" parent="0" />
        <mxCell id="sec8ILiSW6V5YE2gVIii-18" value="" style="shape=internalStorage;whiteSpace=wrap;html=1;backgroundOutline=1;" parent="1" vertex="1">
          <mxGeometry x="160" y="10" width="1290" height="700" as="geometry" />
        </mxCell>
        <mxCell id="sec8ILiSW6V5YE2gVIii-19" value="Hauptmenü" style="text;strokeColor=none;fillColor=none;html=1;align=center;verticalAlign=middle;whiteSpace=wrap;rounded=0;fontSize=16;" parent="1" vertex="1">
          <mxGeometry x="670" y="15" width="170" height="10" as="geometry" />
        </mxCell>
        <mxCell id="sec8ILiSW6V5YE2gVIii-20" value="Konsole" style="text;strokeColor=none;fillColor=none;html=1;align=center;verticalAlign=middle;whiteSpace=wrap;rounded=0;fontSize=16;rotation=270;" parent="1" vertex="1">
          <mxGeometry x="140" y="70" width="60" height="30" as="geometry" />
        </mxCell>
        <mxCell id="sec8ILiSW6V5YE2gVIii-25" value="2| Ausgewählten Superhelden anzeigen" style="swimlane;whiteSpace=wrap;html=1;" parent="1" vertex="1">
          <mxGeometry x="330" y="200" width="230" height="230" as="geometry" />
        </mxCell>
        <mxCell id="0A9FZHg9IShd1HqOyawz-1" value="&lt;span class=&quot;hljs-title function_&quot;&gt;show_selected_superhero&lt;/span&gt;():" style="text;strokeColor=none;fillColor=none;html=1;align=center;verticalAlign=middle;whiteSpace=wrap;rounded=0;fontSize=16;" vertex="1" parent="sec8ILiSW6V5YE2gVIii-25">
          <mxGeometry x="10" y="30" width="210" height="30" as="geometry" />
        </mxCell>
        <mxCell id="sec8ILiSW6V5YE2gVIii-26" value="1| Superheld erstellen" style="swimlane;whiteSpace=wrap;html=1;startSize=23;" parent="1" vertex="1">
          <mxGeometry x="181" y="200" width="150" height="230" as="geometry" />
        </mxCell>
        <mxCell id="sec8ILiSW6V5YE2gVIii-27" value="3| Alle Superhelden auflisten" style="swimlane;whiteSpace=wrap;html=1;startSize=23;" parent="1" vertex="1">
          <mxGeometry x="560" y="200" width="199" height="230" as="geometry" />
        </mxCell>
        <mxCell id="sec8ILiSW6V5YE2gVIii-28" value="4| Superheld löschen" style="swimlane;whiteSpace=wrap;html=1;startSize=20;" parent="1" vertex="1">
          <mxGeometry x="759" y="200" width="230" height="230" as="geometry" />
        </mxCell>
        <mxCell id="sec8ILiSW6V5YE2gVIii-29" value="5| Raid starten" style="swimlane;whiteSpace=wrap;html=1;startSize=20;" parent="1" vertex="1">
          <mxGeometry x="989" y="200" width="230" height="230" as="geometry" />
        </mxCell>
        <mxCell id="sec8ILiSW6V5YE2gVIii-30" value="6| Beenden" style="swimlane;whiteSpace=wrap;html=1;startSize=20;" parent="1" vertex="1">
          <mxGeometry x="1219" y="200" width="230" height="230" as="geometry" />
        </mxCell>
        <mxCell id="sec8ILiSW6V5YE2gVIii-33" value="Spieler" style="text;strokeColor=none;fillColor=none;html=1;align=center;verticalAlign=middle;whiteSpace=wrap;rounded=0;fontSize=16;rotation=270;" parent="1" vertex="1">
          <mxGeometry x="140" y="155" width="60" height="30" as="geometry" />
        </mxCell>
        <mxCell id="sec8ILiSW6V5YE2gVIii-37" value="" style="endArrow=none;html=1;rounded=0;fontSize=12;startSize=8;endSize=8;curved=1;entryX=1;entryY=0.5;entryDx=0;entryDy=0;" parent="1" edge="1">
          <mxGeometry width="50" height="50" relative="1" as="geometry">
            <mxPoint x="160" y="610" as="sourcePoint" />
            <mxPoint x="1430" y="610" as="targetPoint" />
          </mxGeometry>
        </mxCell>
        <mxCell id="sec8ILiSW6V5YE2gVIii-41" value="" style="endArrow=none;html=1;rounded=0;fontSize=12;startSize=8;endSize=8;curved=1;" parent="1" target="sec8ILiSW6V5YE2gVIii-18" edge="1">
          <mxGeometry width="50" height="50" relative="1" as="geometry">
            <mxPoint x="160" y="120" as="sourcePoint" />
            <mxPoint x="210" y="70" as="targetPoint" />
          </mxGeometry>
        </mxCell>
        <mxCell id="sec8ILiSW6V5YE2gVIii-56" value="&lt;div style=&quot;text-align: justify;&quot;&gt;&lt;span style=&quot;background-color: initial;&quot; class=&quot;hljs-built_in&quot;&gt;print&lt;/span&gt;&lt;span style=&quot;background-color: initial;&quot;&gt;(&lt;/span&gt;&lt;span style=&quot;background-color: initial;&quot; class=&quot;hljs-string&quot;&gt;&quot;Wählen Sie eine Option:&quot;&lt;/span&gt;&lt;span style=&quot;background-color: initial;&quot;&gt;)&lt;/span&gt;&lt;/div&gt;        &lt;span class=&quot;hljs-built_in&quot;&gt;&lt;div style=&quot;text-align: justify;&quot;&gt;&lt;span style=&quot;background-color: initial;&quot; class=&quot;hljs-built_in&quot;&gt;print&lt;/span&gt;&lt;span style=&quot;background-color: initial;&quot;&gt;(&lt;/span&gt;&lt;span style=&quot;background-color: initial;&quot; class=&quot;hljs-string&quot;&gt;&quot;1. Superheld erstellen&quot;&lt;/span&gt;&lt;span style=&quot;background-color: initial;&quot;&gt;)&lt;/span&gt;&lt;/div&gt;&lt;/span&gt;&lt;div style=&quot;text-align: justify;&quot;&gt;&lt;span style=&quot;background-color: initial;&quot; class=&quot;hljs-built_in&quot;&gt;print&lt;/span&gt;&lt;span style=&quot;background-color: initial;&quot;&gt;(&lt;/span&gt;&lt;span style=&quot;background-color: initial;&quot; class=&quot;hljs-string&quot;&gt;&quot;2. Ausgewählten Superhelden anzeigen&quot;&lt;/span&gt;&lt;span style=&quot;background-color: initial;&quot;&gt;)&lt;/span&gt;&lt;/div&gt;                &lt;span class=&quot;hljs-built_in&quot;&gt;&lt;div style=&quot;text-align: justify;&quot;&gt;&lt;span style=&quot;background-color: initial;&quot; class=&quot;hljs-built_in&quot;&gt;print&lt;/span&gt;&lt;span style=&quot;background-color: initial;&quot;&gt;(&lt;/span&gt;&lt;span style=&quot;background-color: initial;&quot; class=&quot;hljs-string&quot;&gt;&quot;3. Alle Superhelden auflisten&quot;&lt;/span&gt;&lt;span style=&quot;background-color: initial;&quot;&gt;)&lt;/span&gt;&lt;/div&gt;&lt;/span&gt;&lt;div style=&quot;text-align: justify;&quot;&gt;&lt;span style=&quot;background-color: initial;&quot; class=&quot;hljs-built_in&quot;&gt;print&lt;/span&gt;&lt;span style=&quot;background-color: initial;&quot;&gt;(&lt;/span&gt;&lt;span style=&quot;background-color: initial;&quot; class=&quot;hljs-string&quot;&gt;&quot;4. Superheld löschen&quot;&lt;/span&gt;&lt;span style=&quot;background-color: initial;&quot;&gt;)&lt;/span&gt;&lt;/div&gt;                &lt;span class=&quot;hljs-built_in&quot;&gt;&lt;div style=&quot;text-align: justify;&quot;&gt;&lt;span style=&quot;background-color: initial;&quot; class=&quot;hljs-built_in&quot;&gt;print&lt;/span&gt;&lt;span style=&quot;background-color: initial;&quot;&gt;(&lt;/span&gt;&lt;span style=&quot;background-color: initial;&quot; class=&quot;hljs-string&quot;&gt;&quot;5. Raid starten&quot;&lt;/span&gt;&lt;span style=&quot;background-color: initial;&quot;&gt;)&lt;/span&gt;&lt;/div&gt;&lt;/span&gt;&lt;div style=&quot;text-align: justify;&quot;&gt;&lt;span style=&quot;background-color: initial;&quot; class=&quot;hljs-built_in&quot;&gt;print&lt;/span&gt;&lt;span style=&quot;background-color: initial;&quot;&gt;(&lt;/span&gt;&lt;span style=&quot;background-color: initial;&quot; class=&quot;hljs-string&quot;&gt;&quot;6. Beenden&quot;&lt;/span&gt;&lt;span style=&quot;background-color: initial;&quot;&gt;)&lt;/span&gt;&lt;/div&gt;        " style="rounded=0;whiteSpace=wrap;html=1;" parent="1" vertex="1">
          <mxGeometry x="181" y="30" width="1269" height="110" as="geometry" />
        </mxCell>
        <mxCell id="sec8ILiSW6V5YE2gVIii-70" value="&#xa;choice = &lt;span class=&quot;hljs-built_in&quot;&gt;input&lt;/span&gt;(&lt;span class=&quot;hljs-string&quot;&gt;&quot;Bitte geben Sie Ihre Wahl ein: &quot;&lt;/span&gt;)&#xa;&#xa;" style="rounded=0;whiteSpace=wrap;html=1;" parent="1" vertex="1">
          <mxGeometry x="180" y="140" width="1270" height="60" as="geometry" />
        </mxCell>
        <mxCell id="sec8ILiSW6V5YE2gVIii-83" value="" style="endArrow=classic;html=1;rounded=0;fontSize=12;startSize=8;endSize=8;curved=1;entryX=1;entryY=0.75;entryDx=0;entryDy=0;exitX=1;exitY=0.25;exitDx=0;exitDy=0;" parent="1" source="sec8ILiSW6V5YE2gVIii-70" target="sec8ILiSW6V5YE2gVIii-70" edge="1">
          <mxGeometry width="50" height="50" relative="1" as="geometry">
            <mxPoint x="1450" y="100" as="sourcePoint" />
            <mxPoint x="1452.58" y="194.79999999999995" as="targetPoint" />
            <Array as="points">
              <mxPoint x="1720" y="174" />
            </Array>
          </mxGeometry>
        </mxCell>
        <mxCell id="sec8ILiSW6V5YE2gVIii-88" value="missInputInception" style="text;strokeColor=none;fillColor=none;html=1;align=center;verticalAlign=middle;whiteSpace=wrap;rounded=0;fontSize=16;" parent="1" vertex="1">
          <mxGeometry x="1500" y="125" width="70" height="30" as="geometry" />
        </mxCell>
      </root>
    </mxGraphModel>
  </diagram>
</mxfile>
